<?xml version="1.0" encoding="UTF-8" standalone="no"?>
<!DOCTYPE svg PUBLIC "-//W3C//DTD SVG 1.1//EN"
 "http://www.w3.org/Graphics/SVG/1.1/DTD/svg11.dtd">
<!-- Generated by graphviz version 6.0.1 (20220911.1526)
 -->
<!-- Title: G Pages: 1 -->
<svg width="354pt" height="188pt"
 viewBox="0.00 0.00 354.00 188.00" xmlns="http://www.w3.org/2000/svg" xmlns:xlink="http://www.w3.org/1999/xlink">
<g id="graph0" class="graph" transform="scale(1 1) rotate(0) translate(4 184)">
<title>G</title>
<polygon fill="white" stroke="none" points="-4,4 -4,-184 350,-184 350,4 -4,4"/>
<!-- BIRD(F) -->
<g id="node1" class="node">
<title>BIRD(F)</title>
<g id="a_node1"><a xlink:href="https://darksair.org/dwm2-breed/monster/BIRD" xlink:title="BIRD">
<polygon fill="#ff4757" stroke="black" stroke-width="2" points="54,-180 0,-180 0,-144 54,-144 54,-180"/>
<text text-anchor="start" x="8" y="-158.3" font-family="Times,serif" font-size="14.00">BIRD</text>
</a>
</g>
</g>
<!-- Blizzardy -->
<g id="node2" class="node">
<title>Blizzardy</title>
<g id="a_node2"><a xlink:href="https://darksair.org/dwm2-breed/monster/Blizzardy" xlink:title="Blizzardy">
<polygon fill="#eccc68" stroke="black" stroke-width="2" points="155.5,-108 72.5,-108 72.5,-72 155.5,-72 155.5,-108"/>
<text text-anchor="middle" x="114" y="-86.3" font-family="Times,serif" font-size="14.00">Blizzardy</text>
</a>
</g>
</g>
<!-- BIRD(F)&#45;&gt;Blizzardy -->
<g id="edge1" class="edge">
<title>BIRD(F)&#45;&gt;Blizzardy</title>
<path fill="none" stroke="black" d="M48.51,-143.7C59.46,-134.88 72.95,-124.03 84.82,-114.47"/>
<polygon fill="black" stroke="black" points="87.14,-117.1 92.74,-108.1 82.76,-111.65 87.14,-117.1"/>
</g>
<!-- RainHawk -->
<g id="node7" class="node">
<title>RainHawk</title>
<g id="a_node7"><a xlink:href="https://darksair.org/dwm2-breed/monster/RainHawk" xlink:title="RainHawk">
<polygon fill="#eccc68" stroke="black" points="206.5,-36 117.5,-36 117.5,0 206.5,0 206.5,-36"/>
<text text-anchor="middle" x="162" y="-14.3" font-family="Times,serif" font-size="14.00">RainHawk</text>
</a>
</g>
</g>
<!-- Blizzardy&#45;&gt;RainHawk -->
<g id="edge5" class="edge">
<title>Blizzardy&#45;&gt;RainHawk</title>
<path fill="none" stroke="black" d="M125.87,-71.7C131.5,-63.47 138.35,-53.48 144.57,-44.42"/>
<polygon fill="black" stroke="black" points="147.5,-46.33 150.27,-36.1 141.73,-42.37 147.5,-46.33"/>
</g>
<!-- Metaly(M)+2 -->
<g id="node3" class="node">
<title>Metaly(M)+2</title>
<g id="a_node3"><a xlink:href="https://darksair.org/dwm2-breed/monster/Metaly" xlink:title="Metaly+2&lt;br/&gt;&lt;font point&#45;size=&quot;10&quot;&gt;“Matt”&lt;/font&gt;">
<polygon fill="#70a1ff" stroke="black" points="159.5,-180 72.5,-180 72.5,-144 159.5,-144 159.5,-180"/>
<text text-anchor="start" x="80.5" y="-163.8" font-family="Times,serif" font-size="14.00">Metaly+2</text>
<text text-anchor="start" x="98.5" y="-153" font-family="Times,serif" font-size="10.00">“Matt”</text>
</a>
</g>
</g>
<!-- Metaly(M)+2&#45;&gt;Blizzardy -->
<g id="edge2" class="edge">
<title>Metaly(M)+2&#45;&gt;Blizzardy</title>
<path fill="none" stroke="black" d="M115.51,-143.7C115.29,-135.98 115.02,-126.71 114.77,-118.11"/>
<polygon fill="black" stroke="black" points="118.27,-118 114.49,-108.1 111.28,-118.2 118.27,-118"/>
</g>
<!-- BIRD/1 -->
<g id="node4" class="node">
<title>BIRD/1</title>
<g id="a_node4"><a xlink:href="https://darksair.org/dwm2-breed/monster/BIRD" xlink:title="BIRD">
<polygon fill="#eccc68" stroke="black" stroke-width="2" points="236,-180 182,-180 182,-144 236,-144 236,-180"/>
<text text-anchor="start" x="190" y="-158.3" font-family="Times,serif" font-size="14.00">BIRD</text>
</a>
</g>
</g>
<!-- Phoenix -->
<g id="node5" class="node">
<title>Phoenix</title>
<g id="a_node5"><a xlink:href="https://darksair.org/dwm2-breed/monster/Phoenix" xlink:title="Phoenix">
<polygon fill="#eccc68" stroke="black" points="248,-108 174,-108 174,-72 248,-72 248,-108"/>
<text text-anchor="middle" x="211" y="-86.3" font-family="Times,serif" font-size="14.00">Phoenix</text>
</a>
</g>
</g>
<!-- BIRD/1&#45;&gt;Phoenix -->
<g id="edge3" class="edge">
<title>BIRD/1&#45;&gt;Phoenix</title>
<path fill="none" stroke="black" d="M209.49,-143.7C209.71,-135.98 209.98,-126.71 210.23,-118.11"/>
<polygon fill="black" stroke="black" points="213.72,-118.2 210.51,-108.1 206.73,-118 213.72,-118.2"/>
</g>
<!-- Phoenix&#45;&gt;RainHawk -->
<g id="edge6" class="edge">
<title>Phoenix&#45;&gt;RainHawk</title>
<path fill="none" stroke="black" d="M198.89,-71.7C193.13,-63.47 186.14,-53.48 179.79,-44.42"/>
<polygon fill="black" stroke="black" points="182.58,-42.29 173.97,-36.1 176.84,-46.3 182.58,-42.29"/>
</g>
<!-- DrakSlime -->
<g id="node6" class="node">
<title>DrakSlime</title>
<g id="a_node6"><a xlink:href="https://darksair.org/dwm2-breed/monster/DrakSlime" xlink:title="DrakSlime">
<polygon fill="#eccc68" stroke="black" points="346,-180 254,-180 254,-144 346,-144 346,-180"/>
<text text-anchor="middle" x="300" y="-158.3" font-family="Times,serif" font-size="14.00">DrakSlime</text>
</a>
</g>
</g>
<!-- DrakSlime&#45;&gt;Phoenix -->
<g id="edge4" class="edge">
<title>DrakSlime&#45;&gt;Phoenix</title>
<path fill="none" stroke="black" d="M278,-143.7C266.79,-134.88 253,-124.03 240.85,-114.47"/>
<polygon fill="black" stroke="black" points="242.77,-111.54 232.75,-108.1 238.44,-117.04 242.77,-111.54"/>
</g>
</g>
</svg>
